<svg width="113" height="27" viewBox="0 0 113 27" fill="none" xmlns="http://www.w3.org/2000/svg">
<path d="M84.0493 8.13777C85.9314 8.13777 87.4572 6.612 87.4572 4.72988C87.4572 2.84775 85.9314 1.32199 84.0493 1.32199C82.1672 1.32199 80.6414 2.84775 80.6414 4.72988C80.6414 6.612 82.1672 8.13777 84.0493 8.13777Z" fill="white"/>
<path d="M103.405 8.13777H90.315C89.7124 8.13777 89.2234 7.64874 89.2234 7.0462V2.41356C89.2234 1.81102 89.7124 1.32199 90.315 1.32199H103.403C104.005 1.32199 104.494 1.81102 104.494 2.41356V7.0462C104.497 7.64874 104.008 8.13777 103.405 8.13777Z" fill="white"/>
<path d="M106.184 15.5037L106.184 2.41356C106.184 1.81102 106.673 1.32199 107.276 1.32199L111.908 1.32199C112.511 1.32199 113 1.81102 113 2.41356L113 15.5015C113 16.1041 112.511 16.5931 111.908 16.5931L107.276 16.5931C106.673 16.5953 106.184 16.1062 106.184 15.5037Z" fill="white"/>
<path d="M81.733 18.3505H94.8209C95.4235 18.3505 95.9125 18.8395 95.9125 19.4421V24.0747C95.9125 24.6773 95.4235 25.1663 94.8209 25.1663H81.733C81.1304 25.1663 80.6414 24.6773 80.6414 24.0747V19.4421C80.6414 18.8395 81.1304 18.3505 81.733 18.3505Z" fill="white"/>
<path d="M101.089 16.604C102.971 16.604 104.497 15.0782 104.497 13.1961C104.497 11.314 102.971 9.78822 101.089 9.78822C99.2067 9.78822 97.6809 11.314 97.6809 13.1961C97.6809 15.0782 99.2067 16.604 101.089 16.604Z" fill="white"/>
<path d="M92.6313 16.604C94.5134 16.604 96.0392 15.0782 96.0392 13.1961C96.0392 11.314 94.5134 9.78822 92.6313 9.78822C90.7492 9.78822 89.2234 11.314 89.2234 13.1961C89.2234 15.0782 90.7492 16.604 92.6313 16.604Z" fill="white"/>
<path d="M86.3656 16.604H81.733C81.1304 16.604 80.6414 16.115 80.6414 15.5124V10.8798C80.6414 10.2772 81.1304 9.78822 81.733 9.78822H86.3656C86.9682 9.78822 87.4572 10.2772 87.4572 10.8798V15.5124C87.4572 16.115 86.9682 16.604 86.3656 16.604Z" fill="white"/>
<path d="M103.394 25.1663H98.7616C98.159 25.1663 97.67 24.6773 97.67 24.0747V19.4421C97.67 18.8395 98.159 18.3505 98.7616 18.3505H103.394C103.997 18.3505 104.486 18.8395 104.486 19.4421V24.0747C104.486 24.6773 103.997 25.1663 103.394 25.1663Z" fill="white"/>
<path d="M111.908 25.1663H107.276C106.673 25.1663 106.184 24.6773 106.184 24.0747V19.4421C106.184 18.8395 106.673 18.3505 107.276 18.3505H111.908C112.511 18.3505 113 18.8395 113 19.4421V24.0747C113 24.6773 112.511 25.1663 111.908 25.1663Z" fill="white"/>
<path d="M42.4855 7.21993C42.4855 6.04024 42.7402 5.11071 43.2497 4.43136C43.7593 3.752 44.4708 3.41232 45.3842 3.41232C46.0498 3.41232 46.6098 3.67397 47.0642 4.19726V0.424074H49.3915V11H47.3052L47.1882 10.2013C46.7108 10.8256 46.1049 11.1377 45.3704 11.1377C44.4845 11.1377 43.7822 10.798 43.2635 10.1187C42.7448 9.43932 42.4855 8.47307 42.4855 7.21993ZM44.8058 7.36453C44.8058 8.68652 45.1914 9.34751 45.9626 9.34751C46.4767 9.34751 46.8439 9.13177 47.0642 8.70029V5.86352C46.8531 5.42285 46.4905 5.20252 45.9764 5.20252C45.2603 5.20252 44.8724 5.78089 44.8127 6.93763L44.8058 7.36453ZM57.0219 11C56.9392 10.8485 56.8658 10.6259 56.8015 10.3321C56.3746 10.8692 55.7779 11.1377 55.0113 11.1377C54.309 11.1377 53.7123 10.9266 53.2211 10.5043C52.73 10.0774 52.4844 9.5426 52.4844 8.89996C52.4844 8.09208 52.7828 7.48158 53.3795 7.06845C53.9762 6.65533 54.8438 6.44877 55.9822 6.44877H56.6983V6.05631C56.6983 5.37236 56.4022 5.03039 55.81 5.03039C55.2592 5.03039 54.9838 5.30121 54.9838 5.84286H52.6634C52.6634 5.12219 52.9687 4.53693 53.5792 4.08709C54.1943 3.63725 54.9769 3.41232 55.9271 3.41232C56.8773 3.41232 57.6278 3.64413 58.1786 4.10775C58.7294 4.57136 59.0117 5.20711 59.0255 6.01499V9.31308C59.0347 9.99703 59.1403 10.5203 59.3422 10.8829V11H57.0219ZM55.5691 9.48522C55.8582 9.48522 56.0969 9.42325 56.2851 9.29931C56.4779 9.17538 56.6156 9.03537 56.6983 8.87931V7.68814H56.0235C55.2156 7.68814 54.8117 8.05077 54.8117 8.77603C54.8117 8.98718 54.8828 9.15931 55.0251 9.29243C55.1674 9.42096 55.3487 9.48522 55.5691 9.48522ZM65.1342 1.69787V3.55003H66.3598V5.16121H65.1342V8.56946C65.1342 8.84947 65.1847 9.04456 65.2857 9.15472C65.3867 9.26489 65.5863 9.31997 65.8847 9.31997C66.1142 9.31997 66.307 9.3062 66.4631 9.27866V10.938C66.0454 11.0711 65.6093 11.1377 65.1549 11.1377C64.3562 11.1377 63.7663 10.9495 63.3853 10.5731C63.0043 10.1967 62.8138 9.62522 62.8138 8.85865V5.16121H61.8637V3.55003H62.8138V1.69787H65.1342ZM73.5908 11C73.5082 10.8485 73.4347 10.6259 73.3705 10.3321C72.9436 10.8692 72.3469 11.1377 71.5803 11.1377C70.878 11.1377 70.2812 10.9266 69.7901 10.5043C69.2989 10.0774 69.0534 9.5426 69.0534 8.89996C69.0534 8.09208 69.3517 7.48158 69.9485 7.06845C70.5452 6.65533 71.4127 6.44877 72.5511 6.44877H73.2672V6.05631C73.2672 5.37236 72.9711 5.03039 72.379 5.03039C71.8282 5.03039 71.5527 5.30121 71.5527 5.84286H69.2324C69.2324 5.12219 69.5376 4.53693 70.1481 4.08709C70.7632 3.63725 71.5459 3.41232 72.496 3.41232C73.4462 3.41232 74.1967 3.64413 74.7476 4.10775C75.2984 4.57136 75.5807 5.20711 75.5945 6.01499V9.31308C75.6036 9.99703 75.7092 10.5203 75.9112 10.8829V11H73.5908ZM72.138 9.48522C72.4272 9.48522 72.6659 9.42325 72.8541 9.29931C73.0469 9.17538 73.1846 9.03537 73.2672 8.87931V7.68814H72.5924C71.7846 7.68814 71.3806 8.05077 71.3806 8.77603C71.3806 8.98718 71.4518 9.15931 71.5941 9.29243C71.7364 9.42096 71.9177 9.48522 72.138 9.48522ZM4.34879 24.1377C3.20582 24.1377 2.28089 23.798 1.57399 23.1187C0.867092 22.4347 0.513643 21.5465 0.513643 20.454V20.2612C0.513643 19.4993 0.653646 18.8268 0.933651 18.2438C1.21825 17.6609 1.63137 17.211 2.17302 16.8943C2.71467 16.573 3.3573 16.4123 4.10092 16.4123C5.1475 16.4123 5.97374 16.7382 6.57965 17.39C7.18556 18.0373 7.48852 18.9415 7.48852 20.1029V21.0049H2.87532C2.95795 21.4226 3.13926 21.7508 3.41927 21.9895C3.69927 22.2282 4.0619 22.3475 4.50716 22.3475C5.2416 22.3475 5.81538 22.0905 6.2285 21.5764L7.28885 22.8295C6.99966 23.2288 6.58883 23.5479 6.05636 23.7866C5.52849 24.0207 4.9593 24.1377 4.34879 24.1377ZM4.08715 18.2025C3.40779 18.2025 3.00385 18.6524 2.87532 19.5521H5.21635V19.373C5.22553 19.0012 5.13143 18.7143 4.93405 18.5124C4.73667 18.3058 4.45437 18.2025 4.08715 18.2025ZM13.5628 18.6019L14.6438 16.55H17.0537L15.0913 20.1786L17.1501 24H14.7264L13.5559 21.7967L12.4061 24H9.96863L12.0342 20.1786L10.0788 16.55H12.5162L13.5628 18.6019ZM22.9283 22.3475C23.2542 22.3475 23.5066 22.2603 23.6857 22.0859C23.8647 21.9068 23.9519 21.659 23.9473 21.3422H26.1231C26.1231 22.1593 25.8293 22.8295 25.2418 23.3528C24.6588 23.8761 23.906 24.1377 22.9834 24.1377C21.9001 24.1377 21.0463 23.798 20.422 23.1187C19.7977 22.4393 19.4856 21.4983 19.4856 20.2957V20.1993C19.4856 19.4465 19.6233 18.7832 19.8987 18.2094C20.1787 17.631 20.5804 17.1881 21.1036 16.8805C21.6269 16.5684 22.2466 16.4123 22.9627 16.4123C23.9312 16.4123 24.7001 16.6809 25.2693 17.2179C25.8385 17.755 26.1231 18.4825 26.1231 19.4006H23.9473C23.9473 19.015 23.8532 18.7189 23.665 18.5124C23.4768 18.3058 23.2243 18.2025 22.9076 18.2025C22.3063 18.2025 21.9551 18.5858 21.8542 19.3524C21.822 19.5957 21.806 19.9307 21.806 20.3576C21.806 21.1059 21.8955 21.6245 22.0745 21.9137C22.2535 22.2029 22.5381 22.3475 22.9283 22.3475ZM31.4882 17.3487C31.9839 16.7245 32.6174 16.4123 33.3885 16.4123C34.2102 16.4123 34.8299 16.6556 35.2476 17.1422C35.6653 17.6287 35.8787 18.3471 35.8879 19.2973V24H33.5607V19.3524C33.5607 18.9576 33.4803 18.6684 33.3197 18.4848C33.159 18.2966 32.8859 18.2025 32.5003 18.2025C32.0229 18.2025 31.6855 18.354 31.4882 18.657V24H29.1678V13.4241H31.4882V17.3487ZM43.4907 24C43.4081 23.8485 43.3347 23.6259 43.2704 23.3321C42.8435 23.8692 42.2468 24.1377 41.4802 24.1377C40.7779 24.1377 40.1812 23.9266 39.69 23.5043C39.1989 23.0774 38.9533 22.5426 38.9533 21.9C38.9533 21.0921 39.2516 20.4816 39.8484 20.0685C40.4451 19.6553 41.3127 19.4488 42.451 19.4488H43.1671V19.0563C43.1671 18.3724 42.8711 18.0304 42.2789 18.0304C41.7281 18.0304 41.4527 18.3012 41.4527 18.8429H39.1323C39.1323 18.1222 39.4375 17.5369 40.0481 17.0871C40.6631 16.6372 41.4458 16.4123 42.396 16.4123C43.3461 16.4123 44.0966 16.6441 44.6475 17.1077C45.1983 17.5714 45.4806 18.2071 45.4944 19.015V22.3131C45.5036 22.997 45.6091 23.5203 45.8111 23.8829V24H43.4907ZM42.0379 22.4852C42.3271 22.4852 42.5658 22.4233 42.754 22.2993C42.9468 22.1754 43.0845 22.0354 43.1671 21.8793V20.6881H42.4924C41.6845 20.6881 41.2805 21.0508 41.2805 21.776C41.2805 21.9872 41.3517 22.1593 41.494 22.2924C41.6363 22.421 41.8176 22.4852 42.0379 22.4852ZM51.0316 16.55L51.1073 17.4245C51.6214 16.7497 52.3306 16.4123 53.2349 16.4123C54.0107 16.4123 54.589 16.6441 54.97 17.1077C55.3556 17.5714 55.5553 18.2691 55.569 19.2009V24H53.2418V19.2973C53.2418 18.9209 53.1661 18.6455 53.0146 18.471C52.8631 18.292 52.5877 18.2025 52.1883 18.2025C51.7339 18.2025 51.3965 18.3815 51.1762 18.7396V24H48.8558V16.55H51.0316ZM58.7033 20.2199C58.7033 19.4671 58.8272 18.8015 59.0751 18.2232C59.323 17.6448 59.6787 17.1996 60.1423 16.8874C60.6059 16.5707 61.1453 16.4123 61.7604 16.4123C62.5361 16.4123 63.142 16.674 63.5781 17.1973L63.6607 16.55H65.7677V23.7177C65.7677 24.3741 65.6139 24.9433 65.3063 25.4253C65.0034 25.9118 64.5627 26.2836 63.9843 26.5407C63.406 26.8023 62.7358 26.9332 61.9738 26.9332C61.4276 26.9332 60.8974 26.8299 60.3833 26.6233C59.8738 26.4168 59.4836 26.1482 59.2128 25.8177L60.1836 24.4544C60.6151 24.964 61.1843 25.2187 61.8912 25.2187C62.9194 25.2187 63.4335 24.6908 63.4335 23.6351V23.401C62.9883 23.8921 62.426 24.1377 61.7466 24.1377C60.8377 24.1377 60.1033 23.7911 59.5433 23.098C58.9833 22.4003 58.7033 21.4685 58.7033 20.3026V20.2199ZM61.0305 20.3645C61.0305 20.975 61.1453 21.4593 61.3748 21.8173C61.6043 22.1708 61.9256 22.3475 62.3387 22.3475C62.8391 22.3475 63.204 22.18 63.4335 21.8449V18.712C63.2086 18.3724 62.8483 18.2025 62.3525 18.2025C61.9394 18.2025 61.6158 18.3884 61.3817 18.7602C61.1476 19.1275 61.0305 19.6622 61.0305 20.3645ZM72.8059 24.1377C71.6629 24.1377 70.738 23.798 70.0311 23.1187C69.3242 22.4347 68.9707 21.5465 68.9707 20.454V20.2612C68.9707 19.4993 69.1107 18.8268 69.3907 18.2438C69.6753 17.6609 70.0885 17.211 70.6301 16.8943C71.1718 16.573 71.8144 16.4123 72.558 16.4123C73.6046 16.4123 74.4308 16.7382 75.0367 17.39C75.6426 18.0373 75.9456 18.9415 75.9456 20.1029V21.0049H71.3324C71.415 21.4226 71.5963 21.7508 71.8764 21.9895C72.1564 22.2282 72.519 22.3475 72.9642 22.3475C73.6987 22.3475 74.2725 22.0905 74.6856 21.5764L75.7459 22.8295C75.4567 23.2288 75.0459 23.5479 74.5134 23.7866C73.9856 24.0207 73.4164 24.1377 72.8059 24.1377ZM72.5442 18.2025C71.8649 18.2025 71.4609 18.6524 71.3324 19.5521H73.6734V19.373C73.6826 19.0012 73.5885 18.7143 73.3911 18.5124C73.1938 18.3058 72.9115 18.2025 72.5442 18.2025Z" fill="white"/>
</svg>
