<svg width="71" height="53" viewBox="0 0 71 53" fill="none" xmlns="http://www.w3.org/2000/svg">
<path d="M7.46565 14.9313C11.5888 14.9313 14.9313 11.5888 14.9313 7.46565C14.9313 3.34249 11.5888 0 7.46565 0C3.34249 0 0 3.34249 0 7.46565C0 11.5888 3.34249 14.9313 7.46565 14.9313Z" fill="#FBD602"/>
<path d="M49.8682 14.9313H21.1917C19.8717 14.9313 18.8004 13.86 18.8004 12.54V2.39131C18.8004 1.0713 19.8717 0 21.1917 0H49.8635C51.1835 0 52.2548 1.0713 52.2548 2.39131V12.54C52.2596 13.86 51.1882 14.9313 49.8682 14.9313Z" fill="#FF0000"/>
<path d="M55.9565 31.0678L55.9565 2.3913C55.9565 1.0713 57.0278 -6.0584e-07 58.3478 -5.48141e-07L68.4965 -1.04527e-07C69.8165 -4.68282e-08 70.8878 1.0713 70.8878 2.39131L70.8878 31.0631C70.8878 32.3831 69.8165 33.4544 68.4965 33.4544L58.3478 33.4544C57.0278 33.4591 55.9565 32.3878 55.9565 31.0678Z" fill="#FBD602"/>
<path d="M2.39131 37.3044H31.0631C32.3831 37.3044 33.4544 38.3757 33.4544 39.6957V49.8444C33.4544 51.1644 32.3831 52.2358 31.0631 52.2358H2.39131C1.0713 52.2358 0 51.1644 0 49.8444V39.6957C0 38.3757 1.0713 37.3044 2.39131 37.3044Z" fill="#006600"/>
<path d="M44.7939 33.4782C48.9171 33.4782 52.2596 30.1357 52.2596 26.0125C52.2596 21.8894 48.9171 18.5469 44.7939 18.5469C40.6707 18.5469 37.3282 21.8894 37.3282 26.0125C37.3282 30.1357 40.6707 33.4782 44.7939 33.4782Z" fill="#FBD602"/>
<path d="M26.2661 33.4782C30.3892 33.4782 33.7317 30.1357 33.7317 26.0125C33.7317 21.8894 30.3892 18.5469 26.2661 18.5469C22.1429 18.5469 18.8004 21.8894 18.8004 26.0125C18.8004 30.1357 22.1429 33.4782 26.2661 33.4782Z" fill="#006600"/>
<path d="M12.54 33.4782H2.39131C1.0713 33.4782 0 32.4069 0 31.0869V20.9382C0 19.6182 1.0713 18.5469 2.39131 18.5469H12.54C13.86 18.5469 14.9313 19.6182 14.9313 20.9382V31.0869C14.9313 32.4069 13.86 33.4782 12.54 33.4782Z" fill="#FBD602"/>
<path d="M49.8443 52.2358H39.6956C38.3756 52.2358 37.3043 51.1644 37.3043 49.8444V39.6957C37.3043 38.3757 38.3756 37.3044 39.6956 37.3044H49.8443C51.1643 37.3044 52.2356 38.3757 52.2356 39.6957V49.8444C52.2356 51.1644 51.1643 52.2358 49.8443 52.2358Z" fill="#FBD602"/>
<path d="M68.4965 52.2358H58.3478C57.0278 52.2358 55.9565 51.1644 55.9565 49.8444V39.6957C55.9565 38.3757 57.0278 37.3044 58.3478 37.3044H68.4965C69.8165 37.3044 70.8879 38.3757 70.8879 39.6957V49.8444C70.8879 51.1644 69.8165 52.2358 68.4965 52.2358Z" fill="#006600"/>
</svg>
