<svg width="26" height="20" viewBox="0 0 26 20" fill="none" xmlns="http://www.w3.org/2000/svg">
<path d="M25.1115 11.241H6.4425V12.9833H25.1115C25.3425 12.9833 25.5641 12.8915 25.7275 12.7281C25.8909 12.5648 25.9827 12.3432 25.9827 12.1121C25.9827 11.8811 25.8909 11.6595 25.7275 11.4961C25.5641 11.3327 25.3425 11.241 25.1115 11.241Z" fill="white"/>
<path d="M25.1115 18.2102H6.4425V19.9525H25.1115C25.3425 19.9525 25.5641 19.8607 25.7275 19.6974C25.8909 19.534 25.9827 19.3124 25.9827 19.0814C25.9827 18.8503 25.8909 18.6287 25.7275 18.4654C25.5641 18.302 25.3425 18.2102 25.1115 18.2102Z" fill="white"/>
<path d="M11.1903 6.01405H25.1289C25.3599 6.01405 25.5815 5.92227 25.7449 5.75889C25.9083 5.59552 26.0001 5.37394 26.0001 5.14289C26.0001 4.91184 25.9083 4.69026 25.7449 4.52689C25.5815 4.36351 25.3599 4.27173 25.1289 4.27173H12.9326L11.1903 6.01405Z" fill="white"/>
<path d="M12.9762 0.281848C12.8878 0.192557 12.7827 0.12167 12.6668 0.0732902C12.5509 0.0249108 12.4266 0 12.301 0C12.1754 0 12.0511 0.0249108 11.9352 0.0732902C11.8193 0.12167 11.7142 0.192557 11.6259 0.281848L4.6043 7.30341L1.65977 4.13238C1.48649 3.94639 1.24641 3.83685 0.992366 3.82787C0.738319 3.81888 0.491107 3.91118 0.305115 4.08447C0.119123 4.25775 0.00958524 4.49782 0.000599641 4.75187C-0.00838595 5.00592 0.0839164 5.25313 0.257201 5.43912L4.56074 10.0563L12.9762 1.65828C13.0684 1.56894 13.1417 1.46198 13.1917 1.34376C13.2418 1.22553 13.2676 1.09845 13.2676 0.970065C13.2676 0.841676 13.2418 0.714596 13.1917 0.596371C13.1417 0.478146 13.0684 0.371188 12.9762 0.281848Z" fill="white"/>
</svg>
