<svg width="24" height="21" viewBox="0 0 24 21" fill="none" xmlns="http://www.w3.org/2000/svg">
<path d="M22.5 19.5H1.5V14.49C0.941435 14.2224 0.433826 13.8595 0 13.4175V19.5C0 19.8978 0.158035 20.2793 0.43934 20.5606C0.720644 20.8419 1.10218 21 1.5 21H22.5C22.8978 21 23.2794 20.8419 23.5607 20.5606C23.842 20.2793 24 19.8978 24 19.5V13.4175C23.5693 13.8612 23.0609 14.2222 22.5 14.4825V19.5Z" fill="white"/>
<path d="M17.25 15.3001C17.4489 15.3001 17.6397 15.2211 17.7803 15.0804C17.921 14.9398 18 14.749 18 14.5501V10.4551H16.5V12.0001H9V13.5001H16.5V14.5501C16.5 14.749 16.579 14.9398 16.7197 15.0804C16.8603 15.2211 17.0511 15.3001 17.25 15.3001Z" fill="white"/>
<path d="M23.25 3.00014H16.5V1.78514C16.4921 1.30507 16.2943 0.84769 15.9499 0.513138C15.6055 0.178586 15.1426 -0.00587435 14.6625 0.000142716H9.3375C8.8574 -0.00587435 8.39448 0.178586 8.05009 0.513138C7.7057 0.84769 7.5079 1.30507 7.5 1.78514V3.00014H0.75C0.551088 3.00014 0.360322 3.07916 0.21967 3.21981C0.0790176 3.36047 0 3.55123 0 3.75014V9.75014C0 10.7447 0.395088 11.6985 1.09835 12.4018C1.80161 13.1051 2.75544 13.5001 3.75 13.5001H6V14.5501C6 14.7491 6.07902 14.9398 6.21967 15.0805C6.36032 15.2211 6.55109 15.3001 6.75 15.3001C6.94891 15.3001 7.13968 15.2211 7.28033 15.0805C7.42098 14.9398 7.5 14.7491 7.5 14.5501V10.4551H6V12.0001H3.75C3.15326 12.0001 2.58097 11.7631 2.15901 11.3411C1.73705 10.9192 1.5 10.3469 1.5 9.75014V4.50014H22.5V9.75014C22.5 10.3469 22.2629 10.9192 21.841 11.3411C21.419 11.7631 20.8467 12.0001 20.25 12.0001H19.5V13.5001H20.25C21.2446 13.5001 22.1984 13.1051 22.9016 12.4018C23.6049 11.6985 24 10.7447 24 9.75014V3.75014C24 3.55123 23.921 3.36047 23.7803 3.21981C23.6397 3.07916 23.4489 3.00014 23.25 3.00014ZM15 3.00014H9V1.82264C9.00387 1.73576 9.04112 1.65372 9.104 1.59363C9.16688 1.53355 9.25053 1.50006 9.3375 1.50014H14.67C14.7124 1.49915 14.7545 1.5065 14.794 1.5218C14.8335 1.53709 14.8696 1.56002 14.9003 1.58927C14.9309 1.61852 14.9555 1.65353 14.9726 1.69228C14.9897 1.73104 14.999 1.77279 15 1.81514V3.00014Z" fill="white"/>
</svg>
