<svg width="25" height="28" viewBox="0 0 25 28" fill="none" xmlns="http://www.w3.org/2000/svg">
<path d="M24.7148 21.8582C23.9058 21.137 23.1975 20.3103 22.6091 19.4002C21.9666 18.1439 21.5816 16.772 21.4765 15.3649V11.2206C21.4821 9.01058 20.6804 6.87456 19.2221 5.2139C17.7638 3.55325 15.7493 2.48227 13.557 2.20218V1.11997C13.557 0.822933 13.4391 0.538065 13.229 0.328031C13.019 0.117996 12.7341 0 12.4371 0C12.14 0 11.8552 0.117996 11.6451 0.328031C11.4351 0.538065 11.3171 0.822933 11.3171 1.11997V2.21896C9.14451 2.51923 7.15434 3.59669 5.71521 5.25177C4.27608 6.90684 3.48551 9.02739 3.48993 11.2206V15.3649C3.38486 16.772 2.99981 18.1439 2.35738 19.4002C1.77926 20.3082 1.08238 21.1348 0.285235 21.8582C0.195748 21.9368 0.124028 22.0336 0.0748468 22.1421C0.0256657 22.2506 0.000150836 22.3683 0 22.4874V23.6284C0 23.8509 0.0883866 24.0642 0.245716 24.2216C0.403045 24.3789 0.616429 24.4673 0.838926 24.4673H24.1611C24.3836 24.4673 24.597 24.3789 24.7543 24.2216C24.9116 24.0642 25 23.8509 25 23.6284V22.4874C24.9998 22.3683 24.9743 22.2506 24.9252 22.1421C24.876 22.0336 24.8043 21.9368 24.7148 21.8582ZM1.74497 22.7894C2.52551 22.0354 3.21275 21.1904 3.79195 20.2727C4.60118 18.7554 5.07335 17.0814 5.17617 15.3649V11.2206C5.1429 10.2374 5.30782 9.25761 5.66111 8.33949C6.0144 7.42136 6.54884 6.58371 7.23259 5.87643C7.91635 5.16914 8.73544 4.60668 9.64109 4.22255C10.5467 3.83841 11.5204 3.64044 12.5042 3.64044C13.4879 3.64044 14.4616 3.83841 15.3673 4.22255C16.273 4.60668 17.092 5.16914 17.7758 5.87643C18.4596 6.58371 18.994 7.42136 19.3473 8.33949C19.7006 9.25761 19.8655 10.2374 19.8322 11.2206V15.3649C19.935 17.0814 20.4072 18.7554 21.2164 20.2727C21.7956 21.1904 22.4829 22.0354 23.2634 22.7894H1.74497Z" fill="white"/>
<path d="M12.5419 27.2693C13.0703 27.2571 13.5775 27.0584 13.9736 26.7084C14.3697 26.3583 14.6292 25.8795 14.7063 25.3565H10.2935C10.3728 25.8937 10.6445 26.3838 11.0581 26.7356C11.4716 27.0875 11.9989 27.2771 12.5419 27.2693Z" fill="white"/>
</svg>
