<svg width="25" height="25" viewBox="0 0 25 25" fill="none" xmlns="http://www.w3.org/2000/svg">
<path d="M12.5781 7.03125C9.53123 7.03125 7.10936 9.45312 7.10936 12.5C7.10936 15.5469 9.53123 17.9688 12.5781 17.9688C15.625 17.9688 18.0469 15.5469 18.0469 12.5C18.0469 9.45312 15.625 7.03125 12.5781 7.03125ZM12.5781 16.4062C10.3906 16.4062 8.67186 14.6875 8.67186 12.5C8.67186 10.3125 10.3906 8.59375 12.5781 8.59375C14.7656 8.59375 16.4844 10.3125 16.4844 12.5C16.4844 14.6875 14.7656 16.4062 12.5781 16.4062Z" fill="white"/>
<path d="M24.0625 9.92188L21.875 9.21875L21.4062 8.04688L22.5 6.01562C22.7344 5.54688 22.6562 4.92188 22.2656 4.53125L20.3906 2.65625C20 2.26562 19.375 2.1875 18.9062 2.42188L16.875 3.51562L15.7031 3.04688L15 0.859375C14.8438 0.390625 14.375 0 13.8281 0H11.1719C10.625 0 10.1562 0.390625 10.0781 0.9375L9.375 3.125C8.90625 3.20312 8.51562 3.35938 8.125 3.59375L6.09375 2.5C5.625 2.26562 5 2.34375 4.60938 2.73438L2.73438 4.60938C2.34375 5 2.26562 5.625 2.5 6.09375L3.51562 8.04688C3.35938 8.4375 3.20312 8.90625 3.04688 9.29688L0.859375 10C0.390625 10.1562 0 10.625 0 11.1719V13.8281C0 14.375 0.390625 14.8438 0.9375 15L3.125 15.7031L3.59375 16.875L2.5 18.9062C2.26562 19.375 2.34375 20 2.73438 20.3906L4.60938 22.2656C5 22.6562 5.625 22.7344 6.09375 22.5L8.125 21.4062L9.29688 21.875L10 24.1406C10.1562 24.6094 10.625 25 11.1719 25H13.8281C14.375 25 14.8438 24.6094 15 24.1406L15.7031 21.875L16.875 21.4062L18.9062 22.5C19.375 22.7344 20 22.6562 20.3906 22.2656L22.2656 20.3906C22.6562 20 22.7344 19.375 22.5 18.9062L21.4062 16.875L21.875 15.7031L24.1406 15C24.6094 14.8438 25 14.375 25 13.8281V11.1719C25 10.625 24.6094 10.0781 24.0625 9.92188ZM23.4375 13.5938L20.625 14.4531L20.5469 14.8438L19.8438 16.4844L19.6094 16.875L21.0156 19.4531L19.4531 21.0156L16.875 19.6094L16.4844 19.8438C15.9375 20.1562 15.3906 20.3906 14.8438 20.5469L14.4531 20.625L13.5938 23.4375H11.4062L10.5469 20.625L10.1562 20.5469L8.51562 19.8438L8.125 19.6094L5.54688 21.0156L3.98438 19.4531L5.39062 16.875L5.15625 16.4844C4.84375 15.9375 4.60938 15.3906 4.45312 14.8438L4.375 14.4531L1.5625 13.5938V11.4062L4.21875 10.625L4.375 10.2344C4.53125 9.60938 4.76562 9.0625 5.07812 8.51562L5.3125 8.125L3.98438 5.54688L5.54688 3.98438L8.04688 5.39062L8.4375 5.15625C8.98438 4.84375 9.53125 4.60938 10.1562 4.45312L10.5469 4.29688L11.4062 1.5625H13.5938L14.4531 4.29688L14.8438 4.45312C15.3906 4.60938 15.9375 4.84375 16.4844 5.15625L16.875 5.39062L19.4531 3.98438L21.0156 5.54688L19.6094 8.125L19.8438 8.51562C20.1562 9.0625 20.3906 9.60938 20.5469 10.1562L20.625 10.5469L23.4375 11.4062V13.5938Z" fill="white"/>
</svg>
