<svg width="22" height="22" viewBox="0 0 22 22" fill="none" xmlns="http://www.w3.org/2000/svg">
<path d="M6.32399 6.5604C6.32696 5.86305 6.09735 5.18463 5.67148 4.63242C5.24562 4.08021 4.6478 3.68575 3.9726 3.51142V0.783799C3.9726 0.575922 3.89002 0.37656 3.74303 0.22957C3.59604 0.0825787 3.39667 0 3.1888 0C2.98092 0 2.78156 0.0825787 2.63457 0.22957C2.48758 0.37656 2.405 0.575922 2.405 0.783799V3.51142C1.71985 3.6755 1.10994 4.06558 0.673615 4.61873C0.237294 5.17188 0 5.85587 0 6.5604C0 7.26492 0.237294 7.94891 0.673615 8.50206C1.10994 9.05522 1.71985 9.44529 2.405 9.60937V21.1626C2.405 21.3704 2.48758 21.5698 2.63457 21.7168C2.78156 21.8638 2.98092 21.9464 3.1888 21.9464C3.39667 21.9464 3.59604 21.8638 3.74303 21.7168C3.89002 21.5698 3.9726 21.3704 3.9726 21.1626V9.60937C4.6478 9.43504 5.24562 9.04058 5.67148 8.48837C6.09735 7.93617 6.32696 7.25774 6.32399 6.5604ZM3.1888 8.12799C2.87876 8.12799 2.57568 8.03606 2.31789 7.86381C2.0601 7.69156 1.85917 7.44673 1.74053 7.16029C1.62188 6.87385 1.59084 6.55866 1.65132 6.25457C1.71181 5.95049 1.86111 5.67117 2.08034 5.45194C2.29957 5.23271 2.57889 5.08341 2.88298 5.02292C3.18706 4.96243 3.50225 4.99348 3.78869 5.11212C4.07513 5.23077 4.31996 5.4317 4.49221 5.68949C4.66446 5.94728 4.7564 6.25035 4.7564 6.5604C4.75951 6.76823 4.72127 6.9746 4.64389 7.16751C4.5665 7.36043 4.45153 7.53602 4.30565 7.68409C4.15978 7.83215 3.98591 7.94973 3.79417 8.02997C3.60243 8.11022 3.39665 8.15153 3.1888 8.15151V8.12799Z" fill="white"/>
<path d="M22 9.27234C22.003 8.575 21.7733 7.89657 21.3475 7.34437C20.9216 6.79216 20.3238 6.39769 19.6486 6.22336V0.783799C19.6486 0.575922 19.566 0.37656 19.419 0.22957C19.272 0.0825787 19.0727 0 18.8648 0C18.6569 0 18.4576 0.0825787 18.3106 0.22957C18.1636 0.37656 18.081 0.575922 18.081 0.783799V6.22336C17.3958 6.38745 16.7859 6.77752 16.3496 7.33067C15.9133 7.88383 15.676 8.56782 15.676 9.27234C15.676 9.97686 15.9133 10.6609 16.3496 11.214C16.7859 11.7672 17.3958 12.1572 18.081 12.3213V21.1626C18.081 21.3704 18.1636 21.5698 18.3106 21.7168C18.4576 21.8638 18.6569 21.9464 18.8648 21.9464C19.0727 21.9464 19.272 21.8638 19.419 21.7168C19.566 21.5698 19.6486 21.3704 19.6486 21.1626V12.3213C20.3238 12.147 20.9216 11.7525 21.3475 11.2003C21.7733 10.6481 22.003 9.96968 22 9.27234ZM18.8648 10.8399C18.5548 10.8399 18.2517 10.748 17.9939 10.5758C17.7361 10.4035 17.5352 10.1587 17.4165 9.87223C17.2979 9.58579 17.2668 9.2706 17.3273 8.96652C17.3878 8.66243 17.5371 8.38311 17.7563 8.16388C17.9756 7.94465 18.2549 7.79535 18.559 7.73486C18.8631 7.67438 19.1782 7.70542 19.4647 7.82407C19.7511 7.94272 19.996 8.14364 20.1682 8.40143C20.3405 8.65922 20.4324 8.9623 20.4324 9.27234C20.4366 9.48082 20.3991 9.68804 20.3222 9.88187C20.2453 10.0757 20.1305 10.2522 19.9845 10.4011C19.8385 10.55 19.6643 10.6683 19.472 10.749C19.2798 10.8298 19.0733 10.8713 18.8648 10.8713V10.8399Z" fill="white"/>
<path d="M14.162 16.0679C14.1649 15.3705 13.9353 14.6921 13.5095 14.1399C13.0836 13.5877 12.4858 13.1932 11.8106 13.0189V0.783799C11.8106 0.575922 11.728 0.37656 11.581 0.22957C11.434 0.0825787 11.2347 0 11.0268 0C10.8189 0 10.6195 0.0825787 10.4726 0.22957C10.3256 0.37656 10.243 0.575922 10.243 0.783799V13.0189C9.55783 13.183 8.94792 13.5731 8.5116 14.1262C8.07528 14.6794 7.83798 15.3634 7.83798 16.0679C7.83798 16.7724 8.07528 17.4564 8.5116 18.0095C8.94792 18.5627 9.55783 18.9528 10.243 19.1169V21.1626C10.243 21.3704 10.3256 21.5698 10.4726 21.7168C10.6195 21.8638 10.8189 21.9464 11.0268 21.9464C11.2347 21.9464 11.434 21.8638 11.581 21.7168C11.728 21.5698 11.8106 21.3704 11.8106 21.1626V19.1169C12.4858 18.9425 13.0836 18.5481 13.5095 17.9959C13.9353 17.4436 14.1649 16.7652 14.162 16.0679ZM11.0268 17.6355C10.7167 17.6355 10.4137 17.5435 10.1559 17.3713C9.89808 17.199 9.69716 16.9542 9.57851 16.6678C9.45986 16.3813 9.42882 16.0661 9.4893 15.7621C9.54979 15.458 9.69909 15.1787 9.91832 14.9594C10.1376 14.7402 10.4169 14.5909 10.721 14.5304C11.025 14.4699 11.3402 14.501 11.6267 14.6196C11.9131 14.7383 12.1579 14.9392 12.3302 15.197C12.5024 15.4548 12.5944 15.7578 12.5944 16.0679C12.5975 16.2757 12.5593 16.4821 12.4819 16.675C12.4045 16.8679 12.2895 17.0435 12.1436 17.1916C11.9978 17.3396 11.8239 17.4572 11.6322 17.5375C11.4404 17.6177 11.2346 17.659 11.0268 17.659V17.6355Z" fill="white"/>
</svg>
