<svg width="24" height="24" viewBox="0 0 24 24" fill="none" xmlns="http://www.w3.org/2000/svg">
<path d="M3.42857 3.42857H0V5.14286H5.14286V0H3.42857V3.42857Z" fill="white"/>
<path d="M12.8572 3.42857H9.42859V5.14286H14.5714V0H12.8572V3.42857Z" fill="white"/>
<path d="M22.2857 0V3.42857H18.8572V5.14286H24V0H22.2857Z" fill="white"/>
<path d="M3.42857 12.857H0V14.5713H5.14286V9.42847H3.42857V12.857Z" fill="white"/>
<path d="M12.8572 12.857H9.42859V14.5713H14.5714V9.42847H12.8572V12.857Z" fill="white"/>
<path d="M22.2857 12.857H18.8572V14.5713H24V9.42847H22.2857V12.857Z" fill="white"/>
<path d="M3.42857 22.2857H0V24H5.14286V18.8572H3.42857V22.2857Z" fill="white"/>
<path d="M12.8572 22.2857H9.42859V24H14.5714V18.8572H12.8572V22.2857Z" fill="white"/>
<path d="M22.2857 22.2857H18.8572V24H24V18.8572H22.2857V22.2857Z" fill="white"/>
</svg>
