<svg width="26" height="28" viewBox="0 0 26 28" fill="none" xmlns="http://www.w3.org/2000/svg">
<path d="M3.07027 13.2754C3.24316 13.3619 3.32961 13.3619 3.5025 13.3619C3.67539 13.3619 3.84828 13.2754 3.93473 13.2754L9.98594 9.73117C10.2453 9.55828 10.4182 9.29894 10.4182 8.95315C10.4182 8.60737 10.2453 8.34803 9.98594 8.17514L7.8248 6.87845L9.64016 3.59351C9.98594 2.98839 10.5046 2.46971 11.1097 2.12393C12.8387 1.17302 14.9998 1.86459 15.9507 3.59351C16.21 4.02574 16.7287 4.11218 17.161 3.85284H17.2474C17.5932 3.59351 17.6796 3.07483 17.5067 2.72905C16.9881 1.86459 16.2965 1.08658 15.432 0.654346C12.8387 -0.728788 9.64016 0.135671 8.25703 2.72905L5.83654 6.79201C5.5772 7.22424 5.75009 7.74291 6.09588 8.00225L7.8248 9.0396L4.36696 11.1143V5.32243C4.36696 4.80375 4.02118 4.45797 3.5025 4.45797C3.07027 4.54441 2.72449 4.8902 2.72449 5.40887V12.5839C2.72449 12.8432 2.89738 13.1026 3.07027 13.2754Z" fill="white"/>
<path d="M25.2869 16.3876L22.2613 11.0279C22.1748 10.855 21.9155 10.6821 21.7426 10.5957C21.4832 10.5093 21.3104 10.5957 21.051 10.6821L19.1492 11.8059V7.74299L23.9037 10.5957C23.9902 10.5957 23.9902 10.6821 24.0766 10.6821C24.5089 10.855 25.0275 10.6821 25.2004 10.2499C25.3733 9.81769 25.2004 9.29901 24.7682 9.12612L18.717 5.49539C18.4576 5.3225 18.1119 5.3225 17.8525 5.49539C17.5067 5.58184 17.4203 5.84118 17.4203 6.18696V13.362C17.4203 13.7078 17.5067 14.0535 17.7661 14.2264C18.0254 14.3993 18.3712 14.3993 18.6305 14.2264L21.1375 12.7568L23.7308 17.3385C24.336 18.4623 24.336 19.759 23.7308 20.8828C23.2122 21.9201 22.0884 22.5252 20.9646 22.5252H20.1866C19.7543 22.5252 19.1492 22.871 19.1492 23.3897C19.2357 23.9084 19.6679 24.2542 20.1866 24.2542H20.9646C22.7799 24.2542 24.4224 23.3032 25.2869 21.7472C26.2378 20.0183 26.2378 18.03 25.2869 16.3876Z" fill="white"/>
<path d="M16.9015 22.6116L10.8503 18.9808C10.591 18.8079 10.2452 18.8079 9.98585 18.9808C9.72651 19.1537 9.64007 19.4131 9.64007 19.7588V22.6116H5.40422C4.10753 22.5251 2.89729 21.8335 2.29217 20.6233C1.6006 19.4131 1.6006 17.857 2.29217 16.6468C2.5515 16.2146 2.37861 15.6959 1.94638 15.4365C1.51415 15.1772 0.995477 15.3501 0.736139 15.7823C-0.301211 17.5977 -0.214766 19.7588 0.822585 21.4878C1.77349 23.1302 3.58885 24.1676 5.49066 24.1676H10.5045C11.0232 24.1676 11.369 23.8218 11.369 23.3031V21.2284L14.8268 23.3031L9.98585 26.1558C9.72651 26.3287 9.55362 26.5881 9.55362 26.9339C9.55362 27.4525 9.98585 27.7983 10.4181 27.7983C10.591 27.7983 10.6774 27.7119 10.8503 27.6254L16.9015 23.9947C17.0744 23.9082 17.1609 23.8218 17.2473 23.6489C17.5066 23.3031 17.3338 22.7844 16.9015 22.6116Z" fill="white"/>
</svg>
