<svg width="26" height="26" viewBox="0 0 26 26" fill="none" xmlns="http://www.w3.org/2000/svg">
<path d="M20.3125 15.95V9.44995C20.3125 9.01897 20.1413 8.60565 19.8365 8.3009C19.5318 7.99616 19.1185 7.82495 18.6875 7.82495H7.3125C6.88152 7.82495 6.4682 7.99616 6.16345 8.3009C5.85871 8.60565 5.6875 9.01897 5.6875 9.44995V15.95C5.6875 16.3809 5.85871 16.7943 6.16345 17.099C6.4682 17.4037 6.88152 17.575 7.3125 17.575H18.6875C19.1185 17.575 19.5318 17.4037 19.8365 17.099C20.1413 16.7943 20.3125 16.3809 20.3125 15.95ZM7.3125 9.44995H18.6875V15.95H7.3125V9.44995Z" fill="white"/>
<path d="M13.8125 2.94995H17.0625V4.57495H13.8125V2.94995Z" fill="white"/>
<path d="M18.6957 2.94995H20.2963V4.57495H18.6957V2.94995Z" fill="white"/>
<path d="M3.0875 4.57502H12.0819V2.95002H3.14437L4.69625 1.39002C4.7724 1.31449 4.83285 1.22462 4.8741 1.12561C4.91535 1.0266 4.93659 0.920404 4.93659 0.813144C4.93659 0.705884 4.91535 0.599686 4.8741 0.500675C4.83285 0.401665 4.7724 0.311801 4.69625 0.236269C4.54402 0.0849402 4.33809 0 4.12344 0C3.90879 0 3.70286 0.0849402 3.55062 0.236269L0 3.76252L3.55062 7.33752C3.70286 7.48885 3.90879 7.57379 4.12344 7.57379C4.33809 7.57379 4.54402 7.48885 4.69625 7.33752C4.84758 7.18529 4.93252 6.97936 4.93252 6.76471C4.93252 6.55006 4.84758 6.34413 4.69625 6.19189L3.0875 4.57502Z" fill="white"/>
<path d="M22.4331 18.1276C22.2809 17.9763 22.075 17.8914 21.8603 17.8914C21.6457 17.8914 21.4397 17.9763 21.2875 18.1276C21.2113 18.2032 21.1509 18.293 21.1097 18.392C21.0684 18.491 21.0472 18.5972 21.0472 18.7045C21.0472 18.8118 21.0684 18.918 21.1097 19.017C21.1509 19.116 21.2113 19.2058 21.2875 19.2814L22.8313 20.8251H13.8125V22.4501H22.9125L21.2875 24.0751C21.1362 24.2274 21.0512 24.4333 21.0512 24.6479C21.0512 24.8626 21.1362 25.0685 21.2875 25.2208C21.4388 25.3709 21.6431 25.4555 21.8562 25.4564C21.9632 25.457 22.0692 25.4365 22.1682 25.3961C22.2672 25.3556 22.3572 25.2961 22.4331 25.2208L26 21.6783L22.4331 18.1276Z" fill="white"/>
<path d="M8.9375 20.825H12.1875V22.45H8.9375V20.825Z" fill="white"/>
<path d="M5.6875 20.825H7.28813V22.45H5.6875V20.825Z" fill="white"/>
</svg>
