<svg width="22" height="20" viewBox="0 0 22 20" fill="none" xmlns="http://www.w3.org/2000/svg">
<path d="M1.42857 6.86429H6.86429V1.42857H14.2857V7.41429H15.7143V1.42857C15.7143 1.04969 15.5638 0.686328 15.2959 0.418419C15.028 0.15051 14.6646 0 14.2857 0H4.90714L0 4.90714V18.5714C0 18.9503 0.15051 19.3137 0.418419 19.5816C0.686328 19.8495 1.04969 20 1.42857 20H14.2857C14.6646 20 15.028 19.8495 15.2959 19.5816C15.5638 19.3137 15.7143 18.9503 15.7143 18.5714H1.42857V6.86429ZM1.42857 5.49286L5.49286 1.42857H5.71429V5.71429H1.42857V5.49286Z" fill="#006600"/>
<path d="M17.3714 8.82166C17.2348 8.70464 17.059 8.64349 16.8792 8.65044C16.6995 8.65738 16.5289 8.7319 16.4017 8.85911C16.2745 8.98632 16.2 9.15685 16.1931 9.33662C16.1861 9.51639 16.2473 9.69216 16.3643 9.8288L18.6857 12.1431H10C9.81056 12.1431 9.62888 12.2183 9.49492 12.3523C9.36097 12.4862 9.28571 12.6679 9.28571 12.8574C9.28571 13.0468 9.36097 13.2285 9.49492 13.3624C9.62888 13.4964 9.81056 13.5717 10 13.5717H18.7071L16.3643 15.9145C16.2895 15.9785 16.2288 16.0573 16.1859 16.146C16.143 16.2346 16.1189 16.3311 16.1151 16.4295C16.1113 16.5278 16.1279 16.6259 16.1638 16.7176C16.1997 16.8093 16.2542 16.8925 16.3238 16.9621C16.3934 17.0317 16.4767 17.0862 16.5683 17.1221C16.66 17.158 16.7581 17.1746 16.8565 17.1708C16.9548 17.167 17.0514 17.1429 17.14 17.1C17.2286 17.0572 17.3074 16.9964 17.3714 16.9217L21.4286 12.8574L17.3714 8.82166Z" fill="#006600"/>
</svg>
