<svg width="20" height="18" viewBox="0 0 20 18" fill="none" xmlns="http://www.w3.org/2000/svg">
<path d="M14.1677 10.0062C14.3461 9.52952 14.4366 9.02446 14.4348 8.51551C14.4348 7.38546 13.9859 6.30169 13.1868 5.50262C12.3878 4.70355 11.304 4.25464 10.174 4.25464C9.67128 4.25523 9.17275 4.34568 8.7019 4.52172L9.7019 5.55277C9.85392 5.52846 10.0076 5.516 10.1615 5.51551C10.9606 5.51384 11.7278 5.82839 12.2957 6.39047C12.8636 6.95256 13.186 7.71651 13.1926 8.51551C13.1921 8.66945 13.1796 8.82312 13.1553 8.97514L14.1677 10.0062Z" fill="#006600"/>
<path d="M19.8199 8.22363C17.7267 4.35407 14.0559 2.01245 9.99379 2.01245C8.8878 2.01505 7.78924 2.19325 6.73914 2.5404L7.73914 3.54661C8.47569 3.35626 9.23305 3.2582 9.99379 3.25469C13.4907 3.25469 16.6708 5.205 18.5652 8.49071C17.8703 9.70972 16.949 10.7849 15.8509 11.6584L16.7329 12.5404C18.0038 11.5151 19.0592 10.2486 19.8385 8.81369L20 8.51556L19.8199 8.22363Z" fill="#006600"/>
<path d="M1.54658 0.925466L4.31677 3.69565C2.56579 4.82305 1.13472 6.38247 0.161491 8.2236L0 8.51553L0.161491 8.81366C2.25466 12.6832 5.92546 15.0248 9.98758 15.0248C11.5731 15.0245 13.138 14.6657 14.5652 13.9752L17.6708 17.0807L18.7578 16.1491L2.6087 0L1.54658 0.925466ZM7.60248 6.98137L11.7329 11.1118C11.2662 11.4007 10.729 11.5554 10.1801 11.559C9.78132 11.559 9.38646 11.4802 9.01824 11.327C8.65003 11.1738 8.31575 10.9493 8.03462 10.6665C7.75349 10.3836 7.53107 10.048 7.38016 9.67881C7.22925 9.30966 7.15282 8.91432 7.15528 8.51553C7.16228 7.97302 7.31688 7.44266 7.60248 6.98137ZM6.70186 6.08075C6.12077 6.90025 5.8484 7.89894 5.93299 8.89999C6.01758 9.90104 6.45367 10.8399 7.16404 11.5502C7.87441 12.2606 8.81324 12.6967 9.81429 12.7813C10.8153 12.8659 11.814 12.5935 12.6335 12.0124L13.6273 13.0062C12.4769 13.498 11.2387 13.7515 9.98758 13.7516C6.49068 13.7516 3.31056 11.8012 1.41615 8.51553C2.32528 6.90573 3.63461 5.55789 5.21739 4.60248L6.70186 6.08075Z" fill="#006600"/>
</svg>
