<svg width="19" height="13" viewBox="0 0 19 13" fill="none" xmlns="http://www.w3.org/2000/svg">
<path d="M18.8464 5.90796C16.8554 2.2273 13.3638 0 9.5 0C5.63619 0 2.13868 2.2273 0.165423 5.90796L0 6.18563L0.153607 6.46922C2.14459 10.1499 5.63619 12.3772 9.5 12.3772C13.3638 12.3772 16.8613 10.1794 18.8464 6.46922L19 6.18563L18.8464 5.90796ZM9.5 11.166C6.17382 11.166 3.1194 9.31095 1.34701 6.18563C3.1194 3.06032 6.17382 1.20522 9.5 1.20522C12.8262 1.20522 15.8451 3.06623 17.6471 6.18563C15.8451 9.31095 12.8203 11.166 9.5 11.166Z" fill="#006600"/>
<path d="M9.67133 2.1505C8.87028 2.15634 8.08893 2.39945 7.42597 2.8491C6.763 3.29876 6.24816 3.9348 5.94646 4.67689C5.64477 5.41897 5.56975 6.23382 5.7309 7.01852C5.89204 7.80322 6.28211 8.52256 6.85184 9.08569C7.42157 9.64883 8.14541 10.0305 8.93193 10.1825C9.71845 10.3345 10.5324 10.25 11.2709 9.93967C12.0094 9.62936 12.6394 9.10714 13.0813 8.43899C13.5232 7.77083 13.7572 6.9867 13.7537 6.18564C13.7514 5.6524 13.6439 5.12487 13.4373 4.63327C13.2308 4.14167 12.9292 3.69566 12.55 3.32081C12.1707 2.94596 11.7212 2.64963 11.2273 2.4488C10.7333 2.24798 10.2046 2.14661 9.67133 2.1505ZM9.67133 9.07463C9.1055 9.0688 8.55401 8.8959 8.08612 8.57766C7.61823 8.25942 7.2548 7.81001 7.04149 7.2859C6.82817 6.76178 6.77448 6.18632 6.88715 5.63179C6.99983 5.07726 7.27384 4.56839 7.67478 4.16908C8.07572 3.76977 8.58571 3.49784 9.1407 3.38743C9.69568 3.27702 10.2709 3.33306 10.7942 3.54851C11.3174 3.76396 11.7653 4.12922 12.0816 4.5984C12.398 5.06759 12.5686 5.61978 12.5721 6.18564C12.5737 6.56646 12.4997 6.94381 12.3543 7.29581C12.2089 7.6478 11.9951 7.96743 11.7253 8.23617C11.4555 8.5049 11.135 8.7174 10.7824 8.86133C10.4298 9.00526 10.0521 9.07776 9.67133 9.07463Z" fill="#006600"/>
</svg>
