<svg width="24" height="21" viewBox="0 0 24 21" fill="none" xmlns="http://www.w3.org/2000/svg">
<path d="M14.33 19.7142L23.94 10.0542L14.33 0.394159C14.2432 0.280186 14.1329 0.18619 14.0067 0.118536C13.8804 0.0508828 13.7411 0.0111505 13.5981 0.00202883C13.4551 -0.00709283 13.3119 0.0146097 13.178 0.0656665C13.0442 0.116723 12.9228 0.195943 12.8223 0.297962C12.7217 0.399981 12.6442 0.522417 12.5951 0.656983C12.5459 0.791548 12.5263 0.935101 12.5375 1.07792C12.5486 1.22074 12.5903 1.3595 12.6598 1.4848C12.7292 1.61009 12.8248 1.719 12.94 1.80416L20.13 9.05416L1 9.05416C0.734785 9.05416 0.480432 9.15951 0.292896 9.34705C0.10536 9.53459 1.47946e-06 9.78894 1.46787e-06 10.0542C1.45627e-06 10.3194 0.10536 10.5737 0.292896 10.7613C0.480432 10.9488 0.734785 11.0542 1 11.0542L20.13 11.0542L12.94 18.3042C12.753 18.4925 12.6485 18.7473 12.6494 19.0127C12.6504 19.2781 12.7567 19.5322 12.945 19.7192C13.1333 19.9061 13.3882 20.0107 13.6535 20.0097C13.9189 20.0088 14.173 19.9025 14.36 19.7142L14.33 19.7142Z" fill="white"/>
</svg>
