<svg width="25" height="19" viewBox="0 0 25 19" fill="none" xmlns="http://www.w3.org/2000/svg">
<path d="M24.1667 18.3334H0.833333C0.61232 18.3334 0.400358 18.2456 0.244078 18.0893C0.0877973 17.933 0 17.721 0 17.5C0 17.279 0.0877973 17.067 0.244078 16.9108C0.400358 16.7545 0.61232 16.6667 0.833333 16.6667H24.1667C24.3877 16.6667 24.5996 16.7545 24.7559 16.9108C24.9122 17.067 25 17.279 25 17.5C25 17.721 24.9122 17.933 24.7559 18.0893C24.5996 18.2456 24.3877 18.3334 24.1667 18.3334Z" fill="white"/>
<path d="M24.1667 9.99998H0.833333C0.61232 9.99998 0.400358 9.91218 0.244078 9.7559C0.0877973 9.59962 0 9.38766 0 9.16665C0 8.94563 0.0877973 8.73367 0.244078 8.57739C0.400358 8.42111 0.61232 8.33331 0.833333 8.33331H24.1667C24.3877 8.33331 24.5996 8.42111 24.7559 8.57739C24.9122 8.73367 25 8.94563 25 9.16665C25 9.38766 24.9122 9.59962 24.7559 9.7559C24.5996 9.91218 24.3877 9.99998 24.1667 9.99998Z" fill="white"/>
<path d="M24.1667 1.66667H0.833333C0.61232 1.66667 0.400358 1.57887 0.244078 1.42259C0.0877973 1.26631 0 1.05435 0 0.833333C0 0.61232 0.0877973 0.400358 0.244078 0.244078C0.400358 0.0877975 0.61232 0 0.833333 0H24.1667C24.3877 0 24.5996 0.0877975 24.7559 0.244078C24.9122 0.400358 25 0.61232 25 0.833333C25 1.05435 24.9122 1.26631 24.7559 1.42259C24.5996 1.57887 24.3877 1.66667 24.1667 1.66667Z" fill="white"/>
</svg>
