<svg width="20" height="20" viewBox="0 0 20 20" fill="none" xmlns="http://www.w3.org/2000/svg">
<path d="M18.5714 0H9.19285L4.28571 4.9V7.85714H5.71428V6.86429H11.15V1.42857H18.5714V18.5714H4.28571C4.28571 18.9503 4.43622 19.3137 4.70412 19.5816C4.97203 19.8495 5.3354 20 5.71428 20H18.5714C18.9503 20 19.3137 19.8495 19.5816 19.5816C19.8495 19.3137 20 18.9503 20 18.5714V1.42857C20 1.04969 19.8495 0.686328 19.5816 0.418419C19.3137 0.15051 18.9503 0 18.5714 0ZM9.99999 5.71429H5.71428V5.48571L9.78571 1.42857H9.99999V5.71429Z" fill="#006600"/>
<path d="M7.1 15.9145C7.02523 15.9785 6.9645 16.0573 6.92162 16.1459C6.87875 16.2345 6.85466 16.331 6.85086 16.4294C6.84706 16.5278 6.86363 16.6259 6.89955 16.7175C6.93546 16.8092 6.98992 16.8925 7.05954 16.9621C7.12915 17.0317 7.21239 17.0861 7.30406 17.1221C7.39572 17.158 7.49381 17.1745 7.59218 17.1707C7.69055 17.1669 7.78708 17.1429 7.87569 17.1C7.96431 17.0571 8.04311 16.9964 8.10714 16.9216L12.1429 12.8573L8.08571 8.80017C7.94907 8.68315 7.7733 8.62201 7.59353 8.62895C7.41377 8.63589 7.24324 8.71042 7.11603 8.83763C6.98882 8.96484 6.91429 9.13537 6.90735 9.31514C6.90041 9.4949 6.96155 9.67067 7.07857 9.80732L9.42857 12.143H0.714286C0.524845 12.143 0.343164 12.2183 0.209209 12.3522C0.0752549 12.4862 0 12.6679 0 12.8573C0 13.0468 0.0752549 13.2284 0.209209 13.3624C0.343164 13.4963 0.524845 13.5716 0.714286 13.5716H9.45L7.1 15.9145Z" fill="#006600"/>
</svg>
