<svg width="24" height="24" viewBox="0 0 24 24" fill="none" xmlns="http://www.w3.org/2000/svg">
<path d="M23.5725 12.5793L18.375 10.1868V3.33185C18.3726 3.18804 18.3289 3.04794 18.2491 2.92826C18.1693 2.80858 18.0568 2.71437 17.925 2.65686L12.3 0.0693568C12.2013 0.0236661 12.0938 0 11.985 0C11.8762 0 11.7687 0.0236661 11.67 0.0693568L6.045 2.65686C5.91481 2.7171 5.80464 2.81342 5.72754 2.93439C5.65043 3.05536 5.60964 3.1959 5.61 3.33935V10.1943L0.435002 12.5793C0.304817 12.6396 0.194641 12.7359 0.11754 12.8569C0.0404391 12.9779 -0.000352668 13.1184 2.29705e-06 13.2618V20.5968C-0.000352668 20.7403 0.0404391 20.8808 0.11754 21.0018C0.194641 21.1228 0.304817 21.2191 0.435002 21.2793L6.06 23.8668C6.15873 23.9125 6.26621 23.9362 6.375 23.9362C6.48379 23.9362 6.59127 23.9125 6.69 23.8668L12 21.4218L17.31 23.8668C17.4087 23.9125 17.5162 23.9362 17.625 23.9362C17.7338 23.9362 17.8413 23.9125 17.94 23.8668L23.565 21.2793C23.6952 21.2191 23.8053 21.1228 23.8824 21.0018C23.9595 20.8808 24.0003 20.7403 24 20.5968V13.2618C24.001 13.1192 23.9613 12.9792 23.8856 12.8584C23.8099 12.7375 23.7013 12.6407 23.5725 12.5793ZM21.465 13.2618L17.6325 15.0093L13.8 13.2618L17.6325 11.4993L21.465 13.2618ZM12 1.56936L15.8325 3.33185L12 5.09435L8.175 3.33185L12 1.56936ZM6.375 11.4918L10.2075 13.2543L6.375 15.0093L2.5425 13.2618L6.375 11.4918ZM11.25 20.1093L6.375 22.3593L1.5 20.1093V14.4318L6.06 16.5093C6.15669 16.5528 6.26149 16.5753 6.3675 16.5753C6.47351 16.5753 6.57831 16.5528 6.675 16.5093L11.235 14.4093L11.25 20.1093ZM7.125 10.1868V4.50935L11.685 6.60935C11.7837 6.65504 11.8912 6.67871 12 6.67871C12.1088 6.67871 12.2163 6.65504 12.315 6.60935L16.875 4.50935V10.1943L12 12.4443L7.125 10.1868ZM22.5075 20.1168L17.6325 22.3668L12.75 20.1168V14.4243L17.3175 16.5093C17.4131 16.5517 17.5166 16.5736 17.6212 16.5736C17.7259 16.5736 17.8293 16.5517 17.925 16.5093L22.485 14.4093L22.5075 20.1168Z" fill="white"/>
</svg>
