<svg width="149" height="110" viewBox="0 0 149 110" fill="none" xmlns="http://www.w3.org/2000/svg">
<path d="M15.61 31.22C24.2312 31.22 31.22 24.2312 31.22 15.61C31.22 6.98883 24.2312 0 15.61 0C6.98883 0 0 6.98883 0 15.61C0 24.2312 6.98883 31.22 15.61 31.22Z" fill="#FBD602"/>
<path d="M104.27 31.22H44.3101C41.5501 31.22 39.3101 28.98 39.3101 26.22V5C39.3101 2.24 41.5501 0 44.3101 0H104.26C107.02 0 109.26 2.24 109.26 5V26.22C109.27 28.98 107.03 31.22 104.27 31.22Z" fill="#FF0000"/>
<path d="M117 64.96L117 5C117 2.24 119.24 -1.26676e-06 122 -1.14611e-06L143.22 -2.18557e-07C145.98 -9.79135e-08 148.22 2.24 148.22 5L148.22 64.95C148.22 67.71 145.98 69.95 143.22 69.95L122 69.95C119.24 69.96 117 67.72 117 64.96Z" fill="#FBD602"/>
<path d="M5 78H64.95C67.71 78 69.95 80.24 69.95 83V104.22C69.95 106.98 67.71 109.22 64.95 109.22H5C2.24 109.22 0 106.98 0 104.22V83C0 80.24 2.24 78 5 78Z" fill="#006600"/>
<path d="M93.66 70C102.281 70 109.27 63.0112 109.27 54.39C109.27 45.7689 102.281 38.78 93.66 38.78C85.0389 38.78 78.05 45.7689 78.05 54.39C78.05 63.0112 85.0389 70 93.66 70Z" fill="#FBD602"/>
<path d="M54.9201 70C63.5412 70 70.5301 63.0112 70.5301 54.39C70.5301 45.7689 63.5412 38.78 54.9201 38.78C46.2989 38.78 39.3101 45.7689 39.3101 54.39C39.3101 63.0112 46.2989 70 54.9201 70Z" fill="#006600"/>
<path d="M26.22 70H5C2.24 70 0 67.76 0 65V43.78C0 41.02 2.24 38.78 5 38.78H26.22C28.98 38.78 31.22 41.02 31.22 43.78V65C31.22 67.76 28.98 70 26.22 70Z" fill="#FBD602"/>
<path d="M104.22 109.22H83C80.24 109.22 78 106.98 78 104.22V83C78 80.24 80.24 78 83 78H104.22C106.98 78 109.22 80.24 109.22 83V104.22C109.22 106.98 106.98 109.22 104.22 109.22Z" fill="#FBD602"/>
<path d="M143.22 109.22H122C119.24 109.22 117 106.98 117 104.22V83C117 80.24 119.24 78 122 78H143.22C145.98 78 148.22 80.24 148.22 83V104.22C148.22 106.98 145.98 109.22 143.22 109.22Z" fill="#006600"/>
</svg>
