<svg width="300" height="35" viewBox="0 0 300 35" fill="none" xmlns="http://www.w3.org/2000/svg">
<path d="M0.301178 17.3496C0.301178 14.3379 0.951569 11.9648 2.25235 10.2305C3.55313 8.49609 5.36954 7.62891 7.70157 7.62891C9.40079 7.62891 10.8305 8.29688 11.9906 9.63281V0H17.932V27H12.6059L12.307 24.9609C11.0883 26.5547 9.54141 27.3516 7.66641 27.3516C5.40469 27.3516 3.61172 26.4844 2.28751 24.75C0.963287 23.0156 0.301178 20.5488 0.301178 17.3496ZM6.22501 17.7188C6.22501 21.0938 7.20938 22.7812 9.17813 22.7812C10.4906 22.7812 11.4281 22.2305 11.9906 21.1289V13.8867C11.4516 12.7617 10.5258 12.1992 9.21329 12.1992C7.38516 12.1992 6.39493 13.6758 6.24258 16.6289L6.22501 17.7188ZM37.4121 27C37.2012 26.6133 37.0137 26.0449 36.8496 25.2949C35.7598 26.666 34.2363 27.3516 32.2793 27.3516C30.4863 27.3516 28.9629 26.8125 27.709 25.7344C26.4551 24.6445 25.8281 23.2793 25.8281 21.6387C25.8281 19.5762 26.5898 18.0176 28.1133 16.9629C29.6367 15.9082 31.8516 15.3809 34.7578 15.3809H36.5859V14.3789C36.5859 12.6328 35.8301 11.7598 34.3184 11.7598C32.9121 11.7598 32.209 12.4512 32.209 13.834H26.2852C26.2852 11.9941 27.0645 10.5 28.6231 9.35156C30.1934 8.20313 32.1914 7.62891 34.6172 7.62891C37.043 7.62891 38.959 8.2207 40.3652 9.4043C41.7715 10.5879 42.4922 12.2109 42.5273 14.2734V22.6934C42.5508 24.4395 42.8203 25.7754 43.3359 26.7012V27H37.4121ZM33.7031 23.1328C34.4414 23.1328 35.0508 22.9746 35.5313 22.6582C36.0234 22.3418 36.375 21.9844 36.5859 21.5859V18.5449H34.8633C32.8008 18.5449 31.7695 19.4707 31.7695 21.3223C31.7695 21.8613 31.9512 22.3008 32.3145 22.6406C32.6777 22.9688 33.1406 23.1328 33.7031 23.1328ZM58.1227 3.25195V7.98047H61.2516V12.0938H58.1227V20.7949C58.1227 21.5098 58.2516 22.0078 58.5094 22.2891C58.7672 22.5703 59.277 22.7109 60.0387 22.7109C60.6246 22.7109 61.1168 22.6758 61.5152 22.6055V26.8418C60.4488 27.1816 59.3356 27.3516 58.1754 27.3516C56.1363 27.3516 54.6305 26.8711 53.6578 25.9102C52.6852 24.9492 52.1988 23.4902 52.1988 21.5332V12.0938H49.7731V7.98047H52.1988V3.25195H58.1227ZM79.7121 27C79.5012 26.6133 79.3137 26.0449 79.1496 25.2949C78.0598 26.666 76.5363 27.3516 74.5793 27.3516C72.7863 27.3516 71.2629 26.8125 70.009 25.7344C68.7551 24.6445 68.1281 23.2793 68.1281 21.6387C68.1281 19.5762 68.8898 18.0176 70.4133 16.9629C71.9367 15.9082 74.1516 15.3809 77.0578 15.3809H78.8859V14.3789C78.8859 12.6328 78.1301 11.7598 76.6184 11.7598C75.2121 11.7598 74.509 12.4512 74.509 13.834H68.5852C68.5852 11.9941 69.3645 10.5 70.923 9.35156C72.4934 8.20313 74.4914 7.62891 76.9172 7.62891C79.343 7.62891 81.259 8.2207 82.6652 9.4043C84.0715 10.5879 84.7922 12.2109 84.8273 14.2734V22.6934C84.8508 24.4395 85.1203 25.7754 85.6359 26.7012V27H79.7121ZM76.0031 23.1328C76.7414 23.1328 77.3508 22.9746 77.8313 22.6582C78.3234 22.3418 78.675 21.9844 78.8859 21.5859V18.5449H77.1633C75.1008 18.5449 74.0695 19.4707 74.0695 21.3223C74.0695 21.8613 74.2512 22.3008 74.6145 22.6406C74.9777 22.9688 75.4406 23.1328 76.0031 23.1328ZM117.09 27.3516C114.172 27.3516 111.811 26.4844 110.006 24.75C108.202 23.0039 107.299 20.7363 107.299 17.9473V17.4551C107.299 15.5098 107.657 13.793 108.371 12.3047C109.098 10.8164 110.153 9.66797 111.536 8.85938C112.918 8.03906 114.559 7.62891 116.457 7.62891C119.129 7.62891 121.239 8.46094 122.786 10.125C124.332 11.7773 125.106 14.0859 125.106 17.0508V19.3535H113.329C113.539 20.4199 114.002 21.2578 114.717 21.8672C115.432 22.4766 116.358 22.7812 117.495 22.7812C119.37 22.7812 120.834 22.125 121.889 20.8125L124.596 24.0117C123.858 25.0312 122.809 25.8457 121.45 26.4551C120.102 27.0527 118.649 27.3516 117.09 27.3516ZM116.422 12.1992C114.688 12.1992 113.657 13.3477 113.329 15.6445H119.305V15.1875C119.329 14.2383 119.088 13.5059 118.584 12.9902C118.08 12.4629 117.36 12.1992 116.422 12.1992ZM140.613 13.2188L143.373 7.98047H149.525L144.516 17.2441L149.771 27H143.584L140.596 21.375L137.66 27H131.438L136.711 17.2441L131.719 7.98047H137.941L140.613 13.2188ZM164.523 22.7812C165.355 22.7812 166 22.5586 166.457 22.1133C166.914 21.6562 167.136 21.0234 167.125 20.2148H172.679C172.679 22.3008 171.929 24.0117 170.429 25.3477C168.941 26.6836 167.019 27.3516 164.664 27.3516C161.898 27.3516 159.718 26.4844 158.125 24.75C156.531 23.0156 155.734 20.6133 155.734 17.543V17.2969C155.734 15.375 156.086 13.6816 156.789 12.2168C157.504 10.7402 158.529 9.60938 159.865 8.82422C161.201 8.02734 162.783 7.62891 164.611 7.62891C167.084 7.62891 169.046 8.31445 170.5 9.68555C171.953 11.0566 172.679 12.9141 172.679 15.2578H167.125C167.125 14.2734 166.884 13.5176 166.404 12.9902C165.923 12.4629 165.279 12.1992 164.47 12.1992C162.935 12.1992 162.039 13.1777 161.781 15.1348C161.699 15.7559 161.658 16.6113 161.658 17.7012C161.658 19.6113 161.886 20.9355 162.343 21.6738C162.8 22.4121 163.527 22.7812 164.523 22.7812ZM186.376 10.0195C187.642 8.42578 189.259 7.62891 191.228 7.62891C193.325 7.62891 194.907 8.25 195.974 9.49219C197.04 10.7344 197.585 12.5684 197.609 14.9941V27H191.667V15.1348C191.667 14.127 191.462 13.3887 191.052 12.9199C190.642 12.4395 189.945 12.1992 188.96 12.1992C187.741 12.1992 186.88 12.5859 186.376 13.3594V27H180.452V0H186.376V10.0195ZM217.018 27C216.807 26.6133 216.62 26.0449 216.456 25.2949C215.366 26.666 213.843 27.3516 211.886 27.3516C210.093 27.3516 208.569 26.8125 207.315 25.7344C206.061 24.6445 205.434 23.2793 205.434 21.6387C205.434 19.5762 206.196 18.0176 207.72 16.9629C209.243 15.9082 211.458 15.3809 214.364 15.3809H216.192V14.3789C216.192 12.6328 215.436 11.7598 213.925 11.7598C212.518 11.7598 211.815 12.4512 211.815 13.834H205.891C205.891 11.9941 206.671 10.5 208.229 9.35156C209.8 8.20313 211.798 7.62891 214.223 7.62891C216.649 7.62891 218.565 8.2207 219.971 9.4043C221.378 10.5879 222.098 12.2109 222.134 14.2734V22.6934C222.157 24.4395 222.427 25.7754 222.942 26.7012V27H217.018ZM213.309 23.1328C214.048 23.1328 214.657 22.9746 215.138 22.6582C215.63 22.3418 215.981 21.9844 216.192 21.5859V18.5449H214.47C212.407 18.5449 211.376 19.4707 211.376 21.3223C211.376 21.8613 211.557 22.3008 211.921 22.6406C212.284 22.9688 212.747 23.1328 213.309 23.1328ZM236.27 7.98047L236.463 10.2129C237.776 8.49023 239.586 7.62891 241.895 7.62891C243.875 7.62891 245.352 8.2207 246.325 9.4043C247.309 10.5879 247.819 12.3691 247.854 14.748V27H241.913V14.9941C241.913 14.0332 241.719 13.3301 241.332 12.8848C240.946 12.4277 240.243 12.1992 239.223 12.1992C238.063 12.1992 237.202 12.6562 236.639 13.5703V27H230.715V7.98047H236.27ZM255.855 17.3496C255.855 15.4277 256.172 13.7285 256.805 12.252C257.438 10.7754 258.346 9.63867 259.529 8.8418C260.713 8.0332 262.09 7.62891 263.66 7.62891C265.641 7.62891 267.188 8.29688 268.301 9.63281L268.512 7.98047H273.891V26.2793C273.891 27.9551 273.498 29.4082 272.713 30.6387C271.939 31.8809 270.814 32.8301 269.338 33.4863C267.861 34.1543 266.15 34.4883 264.205 34.4883C262.811 34.4883 261.457 34.2246 260.145 33.6973C258.844 33.1699 257.848 32.4844 257.156 31.6406L259.635 28.1602C260.736 29.4609 262.189 30.1113 263.994 30.1113C266.619 30.1113 267.932 28.7637 267.932 26.0684V25.4707C266.795 26.7246 265.359 27.3516 263.625 27.3516C261.305 27.3516 259.43 26.4668 258 24.6973C256.57 22.916 255.855 20.5371 255.855 17.5605V17.3496ZM261.797 17.7188C261.797 19.2773 262.09 20.5137 262.676 21.4277C263.262 22.3301 264.082 22.7812 265.137 22.7812C266.414 22.7812 267.346 22.3535 267.932 21.498V13.5C267.357 12.6328 266.438 12.1992 265.172 12.1992C264.117 12.1992 263.291 12.6738 262.693 13.623C262.096 14.5605 261.797 15.9258 261.797 17.7188ZM291.859 27.3516C288.941 27.3516 286.58 26.4844 284.775 24.75C282.97 23.0039 282.068 20.7363 282.068 17.9473V17.4551C282.068 15.5098 282.425 13.793 283.14 12.3047C283.867 10.8164 284.921 9.66797 286.304 8.85938C287.687 8.03906 289.328 7.62891 291.226 7.62891C293.898 7.62891 296.007 8.46094 297.554 10.125C299.101 11.7773 299.875 14.0859 299.875 17.0508V19.3535H288.097C288.308 20.4199 288.771 21.2578 289.486 21.8672C290.201 22.4766 291.127 22.7812 292.263 22.7812C294.138 22.7812 295.603 22.125 296.658 20.8125L299.365 24.0117C298.627 25.0312 297.578 25.8457 296.218 26.4551C294.871 27.0527 293.418 27.3516 291.859 27.3516ZM291.191 12.1992C289.457 12.1992 288.425 13.3477 288.097 15.6445H294.074V15.1875C294.097 14.2383 293.857 13.5059 293.353 12.9902C292.849 12.4629 292.129 12.1992 291.191 12.1992Z" fill="#332F2F"/>
</svg>
