<svg width="24" height="25" viewBox="0 0 24 25" fill="none" xmlns="http://www.w3.org/2000/svg">
<path d="M9.76203 1.5394C11.3886 1.53791 12.9791 2.0189 14.3323 2.92151C15.6855 3.82412 16.7406 5.1078 17.3641 6.61016C17.9876 8.11251 18.1515 9.76605 17.8351 11.3616C17.5187 12.9571 16.7361 14.4229 15.5865 15.5736C14.4368 16.7244 12.9717 17.5082 11.3765 17.8261C9.78122 18.144 8.12754 17.9816 6.62461 17.3595C5.12169 16.7373 3.83704 15.6834 2.9332 14.3311C2.02935 12.9787 1.54691 11.3886 1.54691 9.76203C1.55677 7.58559 2.42522 5.50099 3.96351 3.96129C5.5018 2.4216 7.5856 1.55125 9.76203 1.5394ZM9.76203 0C7.83129 0 5.9439 0.572533 4.33854 1.6452C2.73318 2.71786 1.48196 4.24248 0.743095 6.02626C0.00422987 7.81004 -0.189091 9.77286 0.187579 11.6665C0.564249 13.5602 1.49399 15.2996 2.85924 16.6648C4.22448 18.0301 5.96391 18.9598 7.85756 19.3365C9.7512 19.7132 11.714 19.5198 13.4978 18.781C15.2816 18.0421 16.8062 16.7909 17.8789 15.1855C18.9515 13.5802 19.5241 11.6928 19.5241 9.76203C19.5241 7.17298 18.4956 4.68997 16.6648 2.85923C14.8341 1.0285 12.3511 0 9.76203 0Z" fill="#006600"/>
<path d="M23.7818 22.7455L18.2475 17.1736L17.1812 18.2324L22.7155 23.8043C22.785 23.8743 22.8676 23.93 22.9587 23.968C23.0497 24.0061 23.1473 24.0259 23.246 24.0263C23.3446 24.0266 23.4424 24.0075 23.5337 23.9701C23.625 23.9326 23.708 23.8776 23.778 23.8081C23.848 23.7385 23.9037 23.6559 23.9418 23.5649C23.9798 23.4739 23.9996 23.3762 24 23.2776C24.0003 23.1789 23.9812 23.0811 23.9438 22.9898C23.9064 22.8985 23.8513 22.8155 23.7818 22.7455Z" fill="#006600"/>
</svg>
