<svg width="22" height="28" viewBox="0 0 22 28" fill="none" xmlns="http://www.w3.org/2000/svg">
<path d="M20.5531 27.0835H1.44692C1.25802 27.0846 1.07075 27.0485 0.8958 26.9772C0.720851 26.906 0.561652 26.801 0.427292 26.6682C0.292932 26.5354 0.186043 26.3774 0.112728 26.2033C0.0394131 26.0292 0.00110792 25.8424 0 25.6535V3.97503C0.0050224 3.76572 0.0543772 3.55985 0.144807 3.37101C0.235237 3.18217 0.364687 3.01465 0.524612 2.87951C0.684538 2.74437 0.871304 2.64469 1.07259 2.58703C1.27387 2.52938 1.48509 2.51506 1.69231 2.54503H3.38462V4.23734H1.69231V25.3912H20.3077V4.23734H18.6154V2.54503H20.5192C20.711 2.53939 20.9019 2.57215 21.0807 2.64137C21.2596 2.7106 21.4228 2.8149 21.5608 2.94814C21.6988 3.08138 21.8087 3.24087 21.8841 3.41722C21.9596 3.59358 21.999 3.78323 22 3.97503V25.6535C21.9989 25.8424 21.9606 26.0292 21.8873 26.2033C21.814 26.3774 21.7071 26.5354 21.5727 26.6682C21.4383 26.801 21.2792 26.906 21.1042 26.9772C20.9293 27.0485 20.742 27.0846 20.5531 27.0835Z" fill="white"/>
<path d="M9.86612 20.1113L5.33074 15.5759C5.19318 15.4131 5.12216 15.2043 5.13186 14.9914C5.14156 14.7785 5.23128 14.577 5.38307 14.4274C5.53487 14.2777 5.73755 14.1909 5.95061 14.1842C6.16367 14.1775 6.3714 14.2515 6.53227 14.3913L9.86612 17.7252L17.1769 10.4144C17.3388 10.2758 17.547 10.2033 17.7599 10.2116C17.9729 10.2198 18.1749 10.3081 18.3256 10.4588C18.4763 10.6095 18.5646 10.8115 18.5728 11.0244C18.581 11.2374 18.5086 11.4456 18.37 11.6075L9.86612 20.1113Z" fill="white"/>
<path d="M17.7693 7.62202H4.23083V4.51664C4.23306 3.99444 4.44149 3.49426 4.81075 3.12501C5.18 2.75576 5.68017 2.54732 6.20237 2.5451H7.71699C7.9034 1.81705 8.32681 1.17176 8.92048 0.710941C9.51415 0.250125 10.2443 0 10.9958 0C11.7474 0 12.4775 0.250125 13.0712 0.710941C13.6649 1.17176 14.0883 1.81705 14.2747 2.5451H15.7893C16.313 2.54509 16.8153 2.75254 17.1864 3.12203C17.5575 3.49153 17.7671 3.99297 17.7693 4.51664V7.62202ZM5.92314 5.92971H16.077V4.51664C16.077 4.44258 16.0476 4.37156 15.9952 4.31919C15.9428 4.26682 15.8718 4.23741 15.7978 4.23741H12.6924V3.39125C12.6924 2.94242 12.5141 2.51198 12.1967 2.19461C11.8793 1.87724 11.4489 1.69894 11.0001 1.69894C10.5512 1.69894 10.1208 1.87724 9.80342 2.19461C9.48605 2.51198 9.30776 2.94242 9.30776 3.39125V4.23741H6.20237C6.1657 4.23741 6.12939 4.24463 6.09552 4.25866C6.06164 4.27269 6.03086 4.29326 6.00493 4.31919C5.979 4.34512 5.95843 4.3759 5.9444 4.40978C5.93037 4.44366 5.92314 4.47997 5.92314 4.51664V5.92971Z" fill="white"/>
</svg>
