<svg width="16" height="21" viewBox="0 0 16 21" fill="none" xmlns="http://www.w3.org/2000/svg">
<path d="M3.38571 21H1.54843C1.44539 20.998 1.34449 20.9682 1.25506 20.9133C1.16563 20.8585 1.09057 20.7803 1.03683 20.6861C0.983096 20.5918 0.952417 20.4846 0.947639 20.3743C0.94286 20.264 0.964136 20.1542 1.0095 20.055L4.62893 12.469H0.617544C0.507176 12.47 0.398609 12.439 0.303326 12.3794C0.208043 12.3197 0.129585 12.2335 0.0762504 12.13C0.0229154 12.0264 -0.00331447 11.9093 0.000334934 11.7911C0.00398434 11.6729 0.0373773 11.558 0.0969823 11.4585L6.63769 0.302598C6.69131 0.212927 6.76449 0.138586 6.85092 0.0859948C6.93734 0.0334032 7.03441 0.00414062 7.13375 0.000733386H15.3586C15.4809 -0.00546593 15.6021 0.0277496 15.7066 0.0960931C15.8111 0.164437 15.8941 0.264771 15.9449 0.384146C15.9956 0.503522 16.0118 0.636458 15.9914 0.765799C15.971 0.895139 15.9148 1.01495 15.8302 1.10976L10.2816 7.87546H13.5765C13.6931 7.87809 13.8066 7.91638 13.9037 7.98581C14.0007 8.05524 14.0772 8.15293 14.1242 8.26737C14.1712 8.38182 14.1866 8.50826 14.1688 8.63181C14.151 8.75537 14.1006 8.87089 14.0235 8.9648L3.8389 20.7769C3.7822 20.8461 3.71254 20.9017 3.63446 20.9401C3.55638 20.9786 3.47163 20.999 3.38571 21ZM2.56506 19.6875H3.12237L12.1679 9.18791H8.94041C8.81812 9.19411 8.69691 9.1609 8.59241 9.09255C8.48791 9.02421 8.40492 8.92387 8.35416 8.8045C8.3034 8.68512 8.2872 8.55219 8.30764 8.42285C8.32808 8.29351 8.38423 8.1737 8.46884 8.07889L14.0174 1.31319H7.47059L1.70154 11.1566H5.63944C5.74247 11.1586 5.84338 11.1884 5.93281 11.2433C6.02224 11.2981 6.0973 11.3763 6.15103 11.4705C6.20477 11.5647 6.23545 11.672 6.24023 11.7823C6.24501 11.8926 6.22373 12.0024 6.17837 12.1016L2.56506 19.6875Z" fill="#006600"/>
</svg>
