<svg width="24" height="23" viewBox="0 0 24 23" fill="none" xmlns="http://www.w3.org/2000/svg">
<path d="M11.92 10.4448C14.08 10.4448 15.76 8.68481 15.76 6.52481C15.76 4.36481 14 2.68481 11.84 2.68481C9.68 2.68481 8 4.44481 8 6.52481C8 8.68481 9.76 10.4448 11.92 10.4448ZM11.84 4.28481C11.92 4.28481 11.92 4.28481 11.84 4.28481C13.12 4.28481 14.16 5.32481 14.16 6.60481C14.16 7.88481 13.12 8.84481 11.84 8.84481C10.56 8.84481 9.6 7.80481 9.6 6.60481C9.6 5.32481 10.64 4.28481 11.84 4.28481Z" fill="white"/>
<path d="M23.76 9.96452C22.24 8.60452 20.24 7.88452 18.16 7.96452H17.52C17.36 8.60452 17.12 9.16452 16.8 9.64452C17.28 9.56452 17.68 9.56452 18.16 9.56452C19.68 9.48452 21.2 9.96452 22.4 10.8445V16.6045H24V10.2045L23.76 9.96452Z" fill="white"/>
<path d="M16.32 2.84443C16.72 1.88443 17.84 1.40443 18.88 1.80443C19.84 2.20443 20.32 3.32443 19.92 4.36443C19.6 5.08443 18.88 5.56443 18.16 5.56443C18 5.56443 17.76 5.56443 17.6 5.48443C17.68 5.88443 17.68 6.28443 17.68 6.60443V7.08443C17.84 7.08443 18 7.16443 18.16 7.16443C20.16 7.16443 21.76 5.56443 21.76 3.64443C21.76 1.64443 20.16 0.0444336 18.24 0.0444336C16.96 0.0444336 15.84 0.684433 15.2 1.80443C15.6 2.04443 16 2.36443 16.32 2.84443Z" fill="white"/>
<path d="M7.2 9.7246C6.88 9.2446 6.64 8.6846 6.48 8.0446H5.84C3.76 7.9646 1.76 8.6846 0.24 9.9646L0 10.2046V16.6046H1.6V10.8446C2.88 9.9646 4.32 9.48461 5.84 9.56461C6.32 9.56461 6.8 9.6446 7.2 9.7246Z" fill="white"/>
<path d="M5.84002 7.08482C6.00002 7.08482 6.16002 7.08481 6.32002 7.00481V6.52481C6.32002 6.12481 6.32002 5.72481 6.40002 5.40481C6.24002 5.48481 6.00002 5.48482 5.84002 5.48482C4.80002 5.48482 3.92002 4.60481 3.92002 3.56481C3.92002 2.52481 4.80002 1.64482 5.84002 1.64482C6.64002 1.64482 7.36002 2.12482 7.68002 2.84482C8.00002 2.44482 8.48002 2.04482 8.88002 1.72482C7.84002 0.0448152 5.68002 -0.515185 4.00002 0.524815C2.32002 1.56482 1.76002 3.72481 2.80002 5.40481C3.44002 6.44481 4.56002 7.08482 5.84002 7.08482Z" fill="white"/>
<path d="M18.48 14.7646L18.32 14.5246C16.72 12.7646 14.48 11.7246 12.08 11.8046C9.68001 11.7246 7.36001 12.7646 5.76001 14.5246L5.60001 14.7646V20.8446C5.60001 21.5646 6.16001 22.2046 6.96001 22.2046H17.2C17.92 22.2046 18.56 21.5646 18.56 20.8446V14.7646H18.48ZM16.88 20.6046H7.20001V15.3246C8.48001 14.0446 10.24 13.4046 12.08 13.4046C13.84 13.3246 15.6 14.0446 16.88 15.3246V20.6046Z" fill="white"/>
</svg>
