<svg width="553" height="425" viewBox="0 0 553 425" fill="none" xmlns="http://www.w3.org/2000/svg">
<path d="M67.0754 89.1495C104.12 89.1495 134.15 59.1191 134.15 22.0747C134.15 -14.9696 104.12 -45 67.0754 -45C30.031 -45 0.000610352 -14.9696 0.000610352 22.0747C0.000610352 59.1191 30.031 89.1495 67.0754 89.1495Z" fill="#FBD602"/>
<path d="M448.039 89.1495H190.396C178.537 89.1495 168.912 79.5244 168.912 67.6649V-23.5155C168.912 -35.3749 178.537 -45 190.396 -45H447.996C459.855 -45 469.48 -35.3749 469.48 -23.5155V67.6649C469.523 79.5244 459.898 89.1495 448.039 89.1495Z" fill="#FF0000"/>
<path d="M502.738 234.127L502.738 -23.5155C502.738 -35.3749 512.363 -45 524.223 -45L615.403 -45C627.262 -45 636.888 -35.3749 636.888 -23.5155L636.888 234.084C636.888 245.944 627.262 255.569 615.403 255.569L524.223 255.569C512.363 255.612 502.738 245.987 502.738 234.127Z" fill="#FBD602"/>
<path d="M21.4845 290.16H279.084C290.944 290.16 300.569 299.785 300.569 311.644V402.825C300.569 414.684 290.944 424.309 279.084 424.309H21.4845C9.62508 424.309 0 414.684 0 402.825V311.644C0 299.785 9.62508 290.16 21.4845 290.16Z" fill="#006600"/>
<path d="M402.449 255.783C439.493 255.783 469.523 225.753 469.523 188.708C469.523 151.664 439.493 121.634 402.449 121.634C365.404 121.634 335.374 151.664 335.374 188.708C335.374 225.753 365.404 255.783 402.449 255.783Z" fill="#FBD602"/>
<path d="M235.986 255.783C273.031 255.783 303.061 225.753 303.061 188.708C303.061 151.664 273.031 121.634 235.986 121.634C198.942 121.634 168.912 151.664 168.912 188.708C168.912 225.753 198.942 255.783 235.986 255.783Z" fill="#006600"/>
<path d="M112.665 255.783H21.4845C9.62508 255.783 0 246.158 0 234.299V143.118C0 131.259 9.62508 121.634 21.4845 121.634H112.665C124.524 121.634 134.149 131.259 134.149 143.118V234.299C134.149 246.158 124.524 255.783 112.665 255.783Z" fill="#FBD602"/>
<path d="M447.824 424.309H356.643C344.784 424.309 335.159 414.684 335.159 402.825V311.644C335.159 299.785 344.784 290.16 356.643 290.16H447.824C459.683 290.16 469.308 299.785 469.308 311.644V402.825C469.308 414.684 459.683 424.309 447.824 424.309Z" fill="#FBD602"/>
<path d="M615.403 424.309H524.223C512.363 424.309 502.738 414.684 502.738 402.825V311.644C502.738 299.785 512.363 290.16 524.223 290.16H615.403C627.262 290.16 636.888 299.785 636.888 311.644V402.825C636.888 414.684 627.262 424.309 615.403 424.309Z" fill="#006600"/>
</svg>
