<svg width="510" height="317" viewBox="0 0 510 317" fill="none" xmlns="http://www.w3.org/2000/svg">
<path d="M-59.9246 134.149C-22.8803 134.149 7.1501 104.119 7.1501 67.0747C7.1501 30.0304 -22.8803 0 -59.9246 0C-96.969 0 -126.999 30.0304 -126.999 67.0747C-126.999 104.119 -96.969 134.149 -59.9246 134.149Z" fill="#FBD602"/>
<path d="M321.039 134.149H63.3962C51.5368 134.149 41.9117 124.524 41.9117 112.665V21.4845C41.9117 9.62508 51.5368 0 63.3962 0H320.996C332.855 0 342.48 9.62508 342.48 21.4845V112.665C342.523 124.524 332.898 134.149 321.039 134.149Z" fill="#FF0000"/>
<path d="M375.738 279.127L375.738 21.4845C375.738 9.62507 385.363 -5.44314e-06 397.223 -4.92474e-06L488.403 -9.39119e-07C500.262 -4.20725e-07 509.888 9.62508 509.888 21.4845L509.888 279.084C509.888 290.944 500.262 300.569 488.403 300.569L397.223 300.569C385.363 300.612 375.738 290.987 375.738 279.127Z" fill="#FBD602"/>
<path d="M275.449 300.783C312.493 300.783 342.523 270.753 342.523 233.708C342.523 196.664 312.493 166.634 275.449 166.634C238.404 166.634 208.374 196.664 208.374 233.708C208.374 270.753 238.404 300.783 275.449 300.783Z" fill="#FBD602"/>
<path d="M108.986 300.783C146.031 300.783 176.061 270.753 176.061 233.708C176.061 196.664 146.031 166.634 108.986 166.634C71.9421 166.634 41.9117 196.664 41.9117 233.708C41.9117 270.753 71.9421 300.783 108.986 300.783Z" fill="#006600"/>
<path d="M-14.3351 300.783H-105.515C-117.375 300.783 -127 291.158 -127 279.299V188.118C-127 176.259 -117.375 166.634 -105.515 166.634H-14.3351C-2.47559 166.634 7.14949 176.259 7.14949 188.118V279.299C7.14949 291.158 -2.47559 300.783 -14.3351 300.783Z" fill="#FBD602"/>
</svg>
