<svg width="408" height="322" viewBox="0 0 408 322" fill="none" xmlns="http://www.w3.org/2000/svg">
<g opacity="0.05">
<path d="M-17.9442 100.112C9.70089 100.112 32.1116 77.7009 32.1116 50.0558C32.1116 22.4108 9.70089 0 -17.9442 0C-45.5892 0 -68 22.4108 -68 50.0558C-68 77.7009 -45.5892 100.112 -17.9442 100.112Z" fill="white"/>
<path d="M266.357 100.112H74.0867C65.2364 100.112 58.0535 92.9287 58.0535 84.0784V16.0333C58.0535 7.1829 65.2364 0 74.0867 0H266.325C275.176 0 282.359 7.1829 282.359 16.0333V84.0784C282.391 92.9287 275.208 100.112 266.357 100.112Z" fill="white"/>
<path d="M307.178 208.304L307.178 16.0333C307.178 7.18289 314.361 -4.06204e-06 323.211 -3.67518e-06L391.256 -7.00836e-07C400.107 -3.13974e-07 407.29 7.1829 407.29 16.0333L407.29 208.272C407.29 217.122 400.107 224.305 391.256 224.305L323.211 224.305C314.361 224.337 307.178 217.154 307.178 208.304Z" fill="white"/>
<path d="M-51.9667 250.119H140.272C149.122 250.119 156.305 257.302 156.305 266.152V334.197C156.305 343.048 149.122 350.231 140.272 350.231H-51.9667C-60.8171 350.231 -68 343.048 -68 334.197V266.152C-68 257.302 -60.8171 250.119 -51.9667 250.119Z" fill="white"/>
<path d="M232.335 224.466C259.98 224.466 282.391 202.055 282.391 174.41C282.391 146.765 259.98 124.354 232.335 124.354C204.69 124.354 182.279 146.765 182.279 174.41C182.279 202.055 204.69 224.466 232.335 224.466Z" fill="white"/>
<path d="M108.109 224.466C135.754 224.466 158.165 202.055 158.165 174.41C158.165 146.765 135.754 124.354 108.109 124.354C80.4642 124.354 58.0535 146.765 58.0535 174.41C58.0535 202.055 80.4642 224.466 108.109 224.466Z" fill="white"/>
<path d="M16.0784 224.466H-51.9667C-60.8171 224.466 -68 217.283 -68 208.432V140.387C-68 131.537 -60.8171 124.354 -51.9667 124.354H16.0784C24.9287 124.354 32.1116 131.537 32.1116 140.387V208.432C32.1116 217.283 24.9287 224.466 16.0784 224.466Z" fill="white"/>
<path d="M266.197 350.231H198.152C189.302 350.231 182.119 343.048 182.119 334.197V266.152C182.119 257.302 189.302 250.119 198.152 250.119H266.197C275.048 250.119 282.231 257.302 282.231 266.152V334.197C282.231 343.048 275.048 350.231 266.197 350.231Z" fill="white"/>
<path d="M391.256 350.231H323.211C314.361 350.231 307.178 343.048 307.178 334.197V266.152C307.178 257.302 314.361 250.119 323.211 250.119H391.256C400.107 250.119 407.29 257.302 407.29 266.152V334.197C407.29 343.048 400.107 350.231 391.256 350.231Z" fill="white"/>
</g>
</svg>
