<svg width="424" height="330" viewBox="0 0 424 330" fill="none" xmlns="http://www.w3.org/2000/svg">
<g opacity="0.05">
<path d="M50.0558 79.1116C77.7009 79.1116 100.112 56.7009 100.112 29.0558C100.112 1.41075 77.7009 -21 50.0558 -21C22.4108 -21 0 1.41075 0 29.0558C0 56.7009 22.4108 79.1116 50.0558 79.1116Z" fill="white"/>
<path d="M334.357 79.1116H142.087C133.236 79.1116 126.053 71.9287 126.053 63.0784V-4.96675C126.053 -13.8171 133.236 -21 142.087 -21H334.325C343.176 -21 350.359 -13.8171 350.359 -4.96675V63.0784C350.391 71.9287 343.208 79.1116 334.357 79.1116Z" fill="white"/>
<path d="M375.178 187.304L375.178 -4.96675C375.178 -13.8171 382.361 -21 391.211 -21L459.256 -21C468.107 -21 475.29 -13.8171 475.29 -4.96675L475.29 187.272C475.29 196.122 468.107 203.305 459.256 203.305L391.211 203.305C382.361 203.337 375.178 196.154 375.178 187.304Z" fill="white"/>
<path d="M16.0333 229.119H208.272C217.122 229.119 224.305 236.302 224.305 245.152V313.197C224.305 322.048 217.122 329.231 208.272 329.231H16.0333C7.1829 329.231 0 322.048 0 313.197V245.152C0 236.302 7.1829 229.119 16.0333 229.119Z" fill="white"/>
<path d="M300.335 203.466C327.98 203.466 350.391 181.055 350.391 153.41C350.391 125.765 327.98 103.354 300.335 103.354C272.69 103.354 250.279 125.765 250.279 153.41C250.279 181.055 272.69 203.466 300.335 203.466Z" fill="white"/>
<path d="M176.109 203.466C203.754 203.466 226.165 181.055 226.165 153.41C226.165 125.765 203.754 103.354 176.109 103.354C148.464 103.354 126.053 125.765 126.053 153.41C126.053 181.055 148.464 203.466 176.109 203.466Z" fill="white"/>
<path d="M84.0784 203.466H16.0333C7.1829 203.466 0 196.283 0 187.432V119.387C0 110.537 7.1829 103.354 16.0333 103.354H84.0784C92.9287 103.354 100.112 110.537 100.112 119.387V187.432C100.112 196.283 92.9287 203.466 84.0784 203.466Z" fill="white"/>
<path d="M334.197 329.231H266.152C257.302 329.231 250.119 322.048 250.119 313.197V245.152C250.119 236.302 257.302 229.119 266.152 229.119H334.197C343.048 229.119 350.23 236.302 350.23 245.152V313.197C350.23 322.048 343.048 329.231 334.197 329.231Z" fill="white"/>
<path d="M459.256 329.231H391.211C382.361 329.231 375.178 322.048 375.178 313.197V245.152C375.178 236.302 382.361 229.119 391.211 229.119H459.256C468.107 229.119 475.29 236.302 475.29 245.152V313.197C475.29 322.048 468.107 329.231 459.256 329.231Z" fill="white"/>
</g>
</svg>
